# xmcd
#
# Track frame offsets: 
#        150
#        20521
#        38716
#        58752
#        77791
#        96015
#        116013
#        129389
#        145732
#        163694
#        181796
#        196619
#
# Disc length: 2917 seconds
#
# Revision: 0
# Processed by: cddbd v1.5.2PL0 Copyright (c) Steve Scherf et al.
# Submitted via: ExactAudioCopy v0.99pb5
#
DISCID=950b630c
DTITLE=Tip Of The Top - Depot Street Blues
DYEAR=2009
DGENRE=Blues
TTITLE0=One Of These Mornings
TTITLE1=Wait Baby
TTITLE2=Stranger Blues
TTITLE3=Juke
TTITLE4=Love Her With A Feeling
TTITLE5=Go Ahead
TTITLE6=Depot Street Shuffle
TTITLE7=I Got To Go
TTITLE8=Got To Move On
TTITLE9=Mellow Down Easy
TTITLE10=Temperature
TTITLE11=Evan's Shuffle
EXTD=
EXTT0=
EXTT1=
EXTT2=
EXTT3=
EXTT4=
EXTT5=
EXTT6=
EXTT7=
EXTT8=
EXTT9=
EXTT10=
EXTT11=
PLAYORDER=
